# MagicaVoxel @ Ephtracy

# material
mtllib raumtest.mtl
usemtl palette

# normals
vn -1 0 0
vn 1 0 0
vn 0 0 1
vn 0 0 -1
vn 0 -1 0
vn 0 1 0

# texcoords
vt 0.126953 0.5
vt 0.294922 0.5
vt 0.306641 0.5
vt 0.310547 0.5
vt 0.341797 0.5
vt 0.466797 0.5
vt 0.970703 0.5

# verts
v -50 0 17
v -50 0 -25
v -50 1 17
v -50 1 -25
v -50 14 17
v -50 14 -25
v -31 1 3
v -31 1 2
v -31 12 3
v -31 12 2
v -26 6 5
v -26 6 4
v -26 7 5
v -26 7 4
v -24 1 5
v -24 1 4
v -24 1 3
v -24 1 2
v -24 6 5
v -24 6 4
v -24 7 5
v -24 7 4
v -24 11 4
v -24 11 3
v -24 11 2
v -24 12 5
v -24 12 4
v 7 12 2
v 7 12 -22
v 7 13 2
v 7 13 -22
v 8 1 3
v 8 1 -23
v 8 12 3
v 8 12 -23
v 8 13 3
v 8 13 -23
v 8 14 3
v 8 14 -23
v -48 1 15
v -48 1 5
v -48 1 3
v -48 1 -23
v -48 12 3
v -48 12 -23
v -48 13 3
v -48 13 -23
v -48 14 15
v -48 14 5
v -48 14 3
v -48 14 -23
v -47 12 2
v -47 12 -22
v -47 13 2
v -47 13 -22
v -30 1 5
v -30 1 4
v -30 1 3
v -30 1 2
v -30 11 4
v -30 11 3
v -30 11 2
v -30 12 5
v -30 12 4
v -23 1 3
v -23 1 2
v -23 12 3
v -23 12 2
v 10 0 3
v 10 0 -25
v 10 1 3
v 10 1 -25
v 10 14 3
v 10 14 -25
v 50 0 17
v 50 0 3
v 50 1 17
v 50 1 15
v 50 1 5
v 50 1 3
v 50 14 17
v 50 14 15
v 50 14 5
v 50 14 3
v -50 0 17
v -50 1 17
v -50 14 17
v 50 0 17
v 50 1 17
v 50 14 17
v -48 1 5
v -48 14 5
v -31 1 5
v -31 13 5
v -30 1 5
v -30 12 5
v -26 6 5
v -26 7 5
v -24 1 5
v -24 6 5
v -24 7 5
v -24 12 5
v -23 1 5
v -23 13 5
v 50 1 5
v 50 14 5
v -30 1 4
v -30 11 4
v -30 12 4
v -26 6 4
v -26 7 4
v -24 1 4
v -24 6 4
v -24 7 4
v -24 11 4
v -24 12 4
v -47 12 -22
v -47 13 -22
v 7 12 -22
v 7 13 -22
v -48 1 -23
v -48 12 -23
v -48 13 -23
v -48 14 -23
v 8 1 -23
v 8 12 -23
v 8 13 -23
v 8 14 -23
v -48 1 15
v -48 14 15
v 50 1 15
v 50 14 15
v -48 1 3
v -48 12 3
v -48 13 3
v -48 14 3
v -31 1 3
v -31 12 3
v -30 1 3
v -30 11 3
v -24 1 3
v -24 11 3
v -23 1 3
v -23 12 3
v 8 1 3
v 8 12 3
v 8 13 3
v 8 14 3
v 10 0 3
v 10 1 3
v 10 14 3
v 50 0 3
v 50 1 3
v 50 14 3
v -47 12 2
v -47 13 2
v -31 1 2
v -31 12 2
v -30 1 2
v -30 11 2
v -24 1 2
v -24 11 2
v -23 1 2
v -23 12 2
v 7 12 2
v 7 13 2
v -50 0 -25
v -50 1 -25
v -50 14 -25
v 10 0 -25
v 10 1 -25
v 10 14 -25
v -50 0 17
v 50 0 17
v 10 0 3
v 50 0 3
v -50 0 -25
v 10 0 -25
v -26 6 5
v -24 6 5
v -26 6 4
v -24 6 4
v -30 11 3
v -24 11 3
v -30 11 2
v -24 11 2
v -30 12 5
v -24 12 5
v -30 12 4
v -24 12 4
v -48 12 3
v -31 12 3
v -23 12 3
v 8 12 3
v -47 12 2
v -31 12 2
v -23 12 2
v 7 12 2
v -47 12 -22
v 7 12 -22
v -48 12 -23
v 8 12 -23
v -48 1 15
v 50 1 15
v -48 1 5
v -31 1 5
v -30 1 5
v -24 1 5
v -23 1 5
v 50 1 5
v -30 1 4
v -24 1 4
v -48 1 3
v -31 1 3
v -30 1 3
v -24 1 3
v -23 1 3
v 8 1 3
v -31 1 2
v -30 1 2
v -24 1 2
v -23 1 2
v -48 1 -23
v 8 1 -23
v -26 7 5
v -24 7 5
v -26 7 4
v -24 7 4
v -48 13 3
v 8 13 3
v -47 13 2
v 7 13 2
v -47 13 -22
v 7 13 -22
v -48 13 -23
v 8 13 -23
v -50 14 17
v 50 14 17
v -48 14 15
v 50 14 15
v -48 14 5
v 50 14 5
v -48 14 3
v 8 14 3
v 10 14 3
v 50 14 3
v -48 14 -23
v 8 14 -23
v -50 14 -25
v 10 14 -25

# faces
f 3/2/1 2/2/1 1/2/1
f 4/2/1 2/2/1 3/2/1
f 5/7/1 4/7/1 3/7/1
f 6/7/1 4/7/1 5/7/1
f 9/4/1 8/4/1 7/4/1
f 10/4/1 8/4/1 9/4/1
f 13/1/1 12/1/1 11/1/1
f 14/1/1 12/1/1 13/1/1
f 19/5/1 16/5/1 15/5/1
f 20/5/1 16/5/1 19/5/1
f 23/5/1 22/5/1 21/5/1
f 24/4/1 18/4/1 17/4/1
f 25/4/1 18/4/1 24/4/1
f 26/5/1 23/5/1 21/5/1
f 27/5/1 23/5/1 26/5/1
f 30/6/1 29/6/1 28/6/1
f 31/6/1 29/6/1 30/6/1
f 34/5/1 33/5/1 32/5/1
f 35/5/1 33/5/1 34/5/1
f 38/7/1 37/7/1 36/7/1
f 39/7/1 37/7/1 38/7/1
f 42/5/2 43/5/2 44/5/2
f 44/5/2 43/5/2 45/5/2
f 40/7/2 41/7/2 48/7/2
f 48/7/2 41/7/2 49/7/2
f 46/7/2 47/7/2 50/7/2
f 50/7/2 47/7/2 51/7/2
f 52/6/2 53/6/2 54/6/2
f 54/6/2 53/6/2 55/6/2
f 56/5/2 57/5/2 60/5/2
f 58/4/2 59/4/2 61/4/2
f 61/4/2 59/4/2 62/4/2
f 56/5/2 60/5/2 63/5/2
f 63/5/2 60/5/2 64/5/2
f 65/4/2 66/4/2 67/4/2
f 67/4/2 66/4/2 68/4/2
f 69/2/2 70/2/2 71/2/2
f 71/2/2 70/2/2 72/2/2
f 71/7/2 72/7/2 73/7/2
f 73/7/2 72/7/2 74/7/2
f 75/2/2 76/2/2 77/2/2
f 77/2/2 76/2/2 78/2/2
f 78/2/2 76/2/2 79/2/2
f 79/2/2 76/2/2 80/2/2
f 77/7/2 78/7/2 81/7/2
f 81/7/2 78/7/2 82/7/2
f 79/7/2 80/7/2 83/7/2
f 83/7/2 80/7/2 84/7/2
f 88/2/3 86/2/3 85/2/3
f 89/7/3 87/7/3 86/7/3
f 89/2/3 86/2/3 88/2/3
f 90/7/3 87/7/3 89/7/3
f 93/7/3 92/7/3 91/7/3
f 94/7/3 92/7/3 93/7/3
f 95/5/3 94/5/3 93/5/3
f 96/5/3 94/5/3 95/5/3
f 100/1/3 98/1/3 97/1/3
f 101/1/3 98/1/3 100/1/3
f 102/5/3 94/5/3 96/5/3
f 103/5/3 101/5/3 100/5/3
f 103/5/3 102/5/3 101/5/3
f 103/5/3 100/5/3 99/5/3
f 104/7/3 92/7/3 94/7/3
f 104/5/3 102/5/3 103/5/3
f 104/5/3 94/5/3 102/5/3
f 105/7/3 104/7/3 103/7/3
f 106/7/3 92/7/3 104/7/3
f 106/7/3 104/7/3 105/7/3
f 110/3/3 108/3/3 107/3/3
f 111/3/3 108/3/3 110/3/3
f 112/3/3 110/3/3 107/3/3
f 113/3/3 110/3/3 112/3/3
f 114/3/3 108/3/3 111/3/3
f 115/7/3 109/7/3 108/7/3
f 115/3/3 108/3/3 114/3/3
f 116/7/3 109/7/3 115/7/3
f 119/6/3 118/6/3 117/6/3
f 120/6/3 118/6/3 119/6/3
f 125/5/3 122/5/3 121/5/3
f 126/5/3 122/5/3 125/5/3
f 127/7/3 124/7/3 123/7/3
f 128/7/3 124/7/3 127/7/3
f 129/7/4 130/7/4 131/7/4
f 131/7/4 130/7/4 132/7/4
f 133/5/4 134/5/4 137/5/4
f 137/5/4 134/5/4 138/5/4
f 139/3/4 140/3/4 141/3/4
f 141/3/4 140/3/4 142/3/4
f 143/5/4 144/5/4 145/5/4
f 145/5/4 144/5/4 146/5/4
f 135/7/4 136/7/4 147/7/4
f 147/7/4 136/7/4 148/7/4
f 149/2/4 150/2/4 152/2/4
f 150/7/4 151/7/4 153/7/4
f 152/2/4 150/2/4 153/2/4
f 153/7/4 151/7/4 154/7/4
f 155/6/4 156/6/4 158/6/4
f 157/4/4 158/4/4 159/4/4
f 159/4/4 158/4/4 160/4/4
f 160/4/4 158/4/4 162/4/4
f 161/4/4 162/4/4 163/4/4
f 158/6/4 156/6/4 164/6/4
f 163/4/4 162/4/4 164/4/4
f 162/4/4 158/4/4 164/4/4
f 164/6/4 156/6/4 165/6/4
f 165/6/4 156/6/4 166/6/4
f 167/2/4 168/2/4 170/2/4
f 168/7/4 169/7/4 171/7/4
f 170/2/4 168/2/4 171/2/4
f 171/7/4 169/7/4 172/7/4
f 175/2/5 174/2/5 173/2/5
f 176/2/5 174/2/5 175/2/5
f 177/2/5 175/2/5 173/2/5
f 178/2/5 175/2/5 177/2/5
f 181/1/5 180/1/5 179/1/5
f 182/1/5 180/1/5 181/1/5
f 185/4/5 184/4/5 183/4/5
f 186/4/5 184/4/5 185/4/5
f 189/5/5 188/5/5 187/5/5
f 190/5/5 188/5/5 189/5/5
f 195/6/5 192/6/5 191/6/5
f 196/6/5 192/6/5 195/6/5
f 197/6/5 194/6/5 193/6/5
f 198/6/5 194/6/5 197/6/5
f 199/6/5 195/6/5 191/6/5
f 200/6/5 194/6/5 198/6/5
f 201/6/5 199/6/5 191/6/5
f 201/6/5 200/6/5 199/6/5
f 202/6/5 194/6/5 200/6/5
f 202/6/5 200/6/5 201/6/5
f 203/2/6 204/2/6 205/2/6
f 205/2/6 204/2/6 206/2/6
f 206/2/6 204/2/6 207/2/6
f 207/2/6 204/2/6 208/2/6
f 208/2/6 204/2/6 209/2/6
f 209/2/6 204/2/6 210/2/6
f 207/2/6 208/2/6 211/2/6
f 211/2/6 208/2/6 212/2/6
f 213/2/6 214/2/6 219/2/6
f 215/2/6 216/2/6 220/2/6
f 220/2/6 216/2/6 221/2/6
f 217/2/6 218/2/6 222/2/6
f 213/2/6 219/2/6 223/2/6
f 221/2/6 222/2/6 223/2/6
f 220/2/6 221/2/6 223/2/6
f 219/2/6 220/2/6 223/2/6
f 222/2/6 218/2/6 224/2/6
f 223/2/6 222/2/6 224/2/6
f 225/1/6 226/1/6 227/1/6
f 227/1/6 226/1/6 228/1/6
f 229/6/6 230/6/6 231/6/6
f 231/6/6 230/6/6 232/6/6
f 229/6/6 231/6/6 233/6/6
f 232/6/6 230/6/6 234/6/6
f 229/6/6 233/6/6 235/6/6
f 233/6/6 234/6/6 235/6/6
f 234/6/6 230/6/6 236/6/6
f 235/6/6 234/6/6 236/6/6
f 237/7/6 238/7/6 239/7/6
f 239/7/6 238/7/6 240/7/6
f 237/7/6 239/7/6 241/7/6
f 237/7/6 241/7/6 243/7/6
f 241/7/6 242/7/6 243/7/6
f 243/7/6 242/7/6 244/7/6
f 244/7/6 242/7/6 245/7/6
f 245/7/6 242/7/6 246/7/6
f 237/7/6 243/7/6 247/7/6
f 244/7/6 245/7/6 248/7/6
f 237/7/6 247/7/6 249/7/6
f 247/7/6 248/7/6 249/7/6
f 248/7/6 245/7/6 250/7/6
f 249/7/6 248/7/6 250/7/6
